<svg width="971" height="1752" viewBox="0 0 971 1752" fill="none" xmlns="http://www.w3.org/2000/svg">
<path fill-rule="evenodd" clip-rule="evenodd" d="M167.407 11.7983L159.684 23.5145L159.972 44.0022L160.26 64.4934L166.839 70.4452L173.414 76.3969L169.53 65.2565L165.646 54.116L171.78 49.6314C176.056 46.5064 176.701 44.4011 173.916 42.6808C168.867 39.5558 168.68 24.2706 173.67 22.6093C175.73 21.9225 176.902 16.5708 176.271 10.7197L175.127 0.0821533L167.407 11.7983ZM870.176 29.1541C868.223 34.2908 867.093 43.2669 867.661 49.0973L868.698 59.6967L874.628 49.2915C881.273 37.6308 882.559 39.1049 877.455 52.5345L874.073 61.4308H878.804C887.21 61.4308 898.095 49.5898 900.332 38.0193L902.51 26.7471H896.389C893.025 26.7471 888.063 29.4767 885.361 32.8167L880.454 38.8864L884.05 31.4294L887.643 23.9724L882.223 21.8913C874.271 18.8392 874.046 18.9744 870.176 29.1541ZM181.196 39.6356C186.442 40.4298 190.732 42.5386 190.732 44.3179C190.732 46.1006 189.563 47.3735 188.131 47.1481C180.682 45.9688 179.878 48.2475 185.53 54.4941C192.182 61.8436 188.103 64.3512 181.022 57.2688L176.861 53.1067L173.011 56.9566L169.159 60.81L182.479 73.7471L195.799 86.6841L188.065 84.2285C183.359 82.7371 180.329 83.2261 180.329 85.4771C180.329 87.5131 185.79 89.1779 192.466 89.1779C205.682 89.1779 208.768 84.0308 197.668 80.5069C189.394 77.8814 189.064 75.3668 195.823 66.4288C198.625 62.728 200.966 57.2064 201.025 54.1646C201.188 46.0763 189.737 37.0724 180.055 37.6724L171.659 38.1927L181.196 39.6356ZM577.599 43.7664C576.528 45.4936 578.778 46.0937 582.597 45.0948C590.694 42.9756 591.717 40.6206 584.539 40.6206C581.789 40.6206 578.667 42.0357 577.599 43.7664ZM854.938 54.4941C856.8 69.8278 866.274 81.981 876.501 82.1648C883.239 82.2827 881.602 76.0154 874.288 73.6916C870.685 72.5505 864.433 64.2506 860.389 55.2502L853.041 38.8864L854.938 54.4941ZM53.1206 47.8417L49.3684 51.5945L53.1865 61.7153C55.288 67.282 59.394 71.8603 62.3139 71.888L67.6232 71.9435L63.1913 74.7564L58.7559 77.5692L67.1932 81.4122L75.627 85.2586L81.1617 79.1404C88.954 70.5284 88.0419 60.4354 78.6718 51.6292C69.9848 43.4716 59.1061 41.8553 53.1206 47.8417ZM551.389 46.5897C531.716 47.8417 511.991 54.9484 507.524 62.3916C505.901 65.09 507.112 64.8992 510.854 61.8644C514.516 58.8955 520.973 57.8272 527.988 59.0307C534.185 60.0921 537.303 60.158 534.917 59.1729C524.846 55.0178 531.841 50.9425 548.06 51.5182C557.673 51.8581 567.348 50.3251 569.561 48.1123C571.773 45.8994 572.88 44.3768 572.023 44.7306C571.166 45.0844 561.88 45.9203 551.389 46.5897ZM55.6175 50.2106C55.5447 52.6212 60.906 60.425 67.5296 67.5525C74.1532 74.6766 79.5908 78.9462 79.6151 77.0386C79.6775 71.8464 55.7666 45.1156 55.6175 50.2106ZM410.941 59.6481C409.034 60.2759 397.628 62.8355 385.591 65.3397C373.558 67.8439 362.051 71.888 360.026 74.3332L356.34 78.7727L368.037 78.8248C374.466 78.856 381.891 80.2468 384.533 81.922C387.474 83.7846 382.768 84.2701 372.396 83.1811L355.455 81.3948L359.371 85.5604C361.524 87.8495 369.715 90.5895 377.577 91.6439L391.868 93.5584V84.6031C391.868 79.678 389.139 74.0592 385.799 72.1135C375.985 66.3976 387.557 67.7537 398.977 73.6604C404.602 76.5703 409.231 81.6411 409.259 84.9326C409.29 88.2206 410.806 93.2532 412.63 96.1146C414.908 99.6905 415.297 97.2765 413.871 88.401L411.798 75.4847L422.617 69.3249C428.568 65.9363 433.447 61.9962 433.461 60.5638C433.482 58.0214 417.832 57.3867 410.941 59.6481ZM307.214 67.4797C306.09 68.6035 305.171 75.2662 305.171 82.2827C305.171 96.4129 313.421 106.52 324.959 106.52C328.867 106.52 334.007 108.861 336.382 111.722C338.758 114.584 342.26 116.925 344.167 116.925C346.103 116.925 345.725 114.625 343.318 111.722C340.596 108.441 340.363 106.52 342.69 106.52C344.715 106.52 347.181 107.82 348.162 109.409C349.144 111.001 354.307 111.993 359.638 111.622C365.932 111.181 366.594 111.462 361.524 112.43C357.234 113.248 353.721 115.375 353.721 117.154C353.721 121.267 352.574 121.364 380.344 114.924C393.314 111.913 408.628 110.328 414.371 111.396L424.812 113.339L418.348 109.534C414.485 107.262 405.174 106.62 395.228 107.942L378.572 110.151L366.324 104.307C357.879 100.28 353.749 95.7817 353.031 89.8299C352.456 85.0783 348.086 78.4641 343.318 75.1275C334.36 68.8601 310.821 63.8726 307.214 67.4797ZM845.335 77.0386C846.199 82.7614 849.785 92.126 853.301 97.8488C860.056 108.833 881.491 127.33 887.466 127.33C889.408 127.33 896.514 132.175 903.255 138.096C909.997 144.016 915.514 147.377 915.514 145.57C915.514 140.93 905.461 132.668 891.239 125.617C868.053 114.126 846.67 88.0056 851.068 76.546C852.139 73.7575 851.588 72.3562 849.847 73.4314C848.106 74.5101 846.025 73.4176 845.224 71.0105C844.42 68.6035 844.472 71.3157 845.335 77.0386ZM205.425 76.1368C207.832 81.2769 210.378 83.8192 211.075 81.7868C211.772 79.7543 209.802 75.5472 206.695 72.4395L201.042 66.7895L205.425 76.1368ZM137.351 81.5232C134.48 87.076 132.375 94.8313 132.67 98.7575L133.207 105.899L141.631 99.2709C150.859 92.0116 167.813 90.697 182.111 96.132C188.1 98.4107 193.291 98.4454 197.075 96.2395L202.87 92.8578L190.732 92.6983C177.114 92.5214 173.348 90.5167 167.841 80.5069C165.583 76.4038 159.643 73.1332 153.297 72.4984L142.574 71.4267L137.351 81.5232ZM506.526 77.9057L506.307 85.7095H492.876C479.577 85.7095 427.708 97.2627 423.9 101.074C419.153 105.823 426.442 106.222 437.283 101.806C443.775 99.1634 459.789 95.0325 472.87 92.6255L496.656 88.2518L516.218 92.5283C526.979 94.8799 545.872 99.1495 558.2 102.011C571.156 105.018 596.034 107.113 617.154 106.971L653.691 106.724L660.627 98.4038C664.441 93.829 669.903 89.223 672.764 88.1721L677.966 86.2575L672.986 85.9835C670.25 85.8344 664.275 89.2195 659.711 93.5134L651.413 101.317L619.092 102.507L586.772 103.697L559.542 96.8361C544.568 93.0625 527.957 88.9663 522.63 87.7385C517.234 86.4934 511.571 82.092 509.844 77.8016L506.748 70.1018L506.526 77.9057ZM94.0136 80.0456L90.0776 84.7904L95.3244 89.1432C98.2062 91.5364 100.568 95.1088 100.568 97.0754C100.568 99.0454 97.8352 98.2477 94.4991 95.303L88.4303 89.9479L80.6277 92.9203C76.3345 94.5539 72.825 96.9817 72.825 98.3136C72.825 99.6489 73.8307 99.7356 75.0583 98.5044C76.2859 97.2765 82.5835 100.918 89.0511 106.6C96.8989 113.491 104.518 116.918 111.96 116.908L123.109 116.89L112.705 108.361C106.983 103.672 104.06 99.7773 106.214 99.7079C108.364 99.6385 112.064 101.924 114.439 104.786C125.79 118.461 128.571 104.009 117.945 86.5766C110.718 74.7217 100.7 71.9886 94.0136 80.0456ZM124.843 85.7095C124.843 87.6171 126.403 89.1779 128.311 89.1779C130.218 89.1779 131.779 87.6171 131.779 85.7095C131.779 83.8019 130.218 82.2411 128.311 82.2411C126.403 82.2411 124.843 83.8019 124.843 85.7095ZM323.589 87.9501L329.869 95.3967L325.323 97.2141C322.823 98.2165 327.019 99.0593 334.648 99.0905L348.52 99.1425L339.923 95.7123C335.193 93.8255 328.17 89.6322 324.317 86.3928L317.309 80.5069L323.589 87.9501ZM142.182 89.3374L136.98 92.8578L147.384 90.5306C160.135 87.6761 162.903 85.6922 154.032 85.7615C150.373 85.7927 145.043 87.3986 142.182 89.3374ZM683.168 87.0726C683.168 87.8217 685.509 89.334 688.37 90.4334C691.231 91.5294 693.571 90.9155 693.571 89.0704C693.571 87.2217 691.231 85.7095 688.37 85.7095C685.509 85.7095 683.168 86.3234 683.168 87.0726ZM703.975 92.2231C703.975 95.8025 706.42 100.762 709.406 103.242C712.391 105.722 717.115 112.156 719.899 117.539C722.681 122.925 726.686 127.33 728.794 127.33C733.993 127.33 730.147 104.73 723.128 94.0128C716.539 83.958 703.975 82.7822 703.975 92.2231ZM785.674 101.154C783.157 117.952 786.07 140.094 791.216 143.274C792.991 144.37 796.754 143.351 799.577 141.009C805.198 136.344 805.257 136.372 810.861 146.406C813.539 151.199 814.738 151.737 814.749 148.14C814.756 145.279 810.105 137.475 804.418 130.798C798.731 124.122 795.037 121.392 796.213 124.729C797.389 128.065 796.816 130.798 794.944 130.798C793.071 130.798 790.564 125.922 789.371 119.96C786.396 105.087 786.635 102.292 790.671 104.786C792.693 106.038 794.139 102.51 794.139 96.3193C794.139 80.278 788.306 83.6111 785.674 101.154ZM215.007 95.7817C219.775 99.694 225.435 102.933 227.589 102.975C229.739 103.017 233.2 105.101 235.28 107.609C237.357 110.116 250.671 115.808 264.861 120.258L290.662 128.35L319.591 124.972L348.52 121.593L311.733 121.805L274.949 122.016L244.109 106.464C207.01 87.7524 203.782 86.5697 215.007 95.7817ZM52.1843 95.8892C49.4135 97.6685 45.904 98.3552 44.3816 97.4153C37.7545 93.3191 42.4119 107.633 50.2596 115.482L58.9085 124.132L65.4489 120.629L71.9892 117.126L69.6692 105.774C67.2556 93.9747 60.8262 90.3398 52.1843 95.8892ZM11.7907 98.768C9.69265 100.169 5.98204 105.094 3.54761 109.714L-0.87738 118.111L5.42718 122.721C12.7132 128.048 27.7428 128.908 27.7428 123.997C27.7428 122.162 31.0512 117.58 35.0947 113.814L42.4466 106.96L29.4698 101.539C14.4089 95.2441 16.5625 95.5805 11.7907 98.768ZM59.2275 101.605C59.394 105.646 60.2159 106.468 61.3221 103.703C62.3243 101.199 62.1995 98.2061 61.0481 97.0546C59.8968 95.9031 59.0784 97.9494 59.2275 101.605ZM497.662 99.5449C496.448 101.508 497.839 102.091 500.925 100.908C506.931 98.6015 508.031 96.1146 503.044 96.1146C501.248 96.1146 498.827 97.6581 497.662 99.5449ZM668.45 105.354C670.847 106.322 671.776 108.781 670.517 110.821C669.161 113.013 669.862 113.516 672.227 112.052C678.278 108.313 677.026 103.017 670.163 103.325C666.501 103.492 665.822 104.297 668.45 105.354ZM681.458 109.96L675.157 116.925H680.931C684.104 116.925 690.977 123.109 696.207 130.667C701.433 138.224 706.784 144.467 708.098 144.54C712.308 144.773 700.327 114.369 693.929 108.577L687.763 102.996L681.458 109.96ZM659.167 113.9C659.018 117.005 661.622 121.687 664.962 124.306L671.03 129.064L667.16 123.862C665.034 121 662.427 116.318 661.365 113.457L659.441 108.254L659.167 113.9ZM709.177 120.393C710.356 122.301 712.88 123.862 714.788 123.862C716.695 123.862 717.292 122.301 716.113 120.393C714.933 118.486 712.409 116.925 710.502 116.925C708.594 116.925 707.998 118.486 709.177 120.393ZM667.767 129.175L661.036 134.267H668.156C672.074 134.267 681.195 138.97 688.425 144.717C695.656 150.464 702.227 154.512 703.028 153.711C705.789 150.95 693.488 130.996 686.826 127.434C678.202 122.818 675.892 123.026 667.767 129.175ZM735.186 130.483C735.186 133.636 801.169 156.142 803.52 153.79C804.203 153.104 799.643 150.613 793.383 148.251C787.124 145.893 772.926 140.222 761.833 135.647C739.867 126.588 735.186 125.683 735.186 130.483ZM930.079 138.429C922.682 145.827 925.578 150.447 943.406 159.7C953.026 164.691 959.958 167.255 958.807 165.396C957.659 163.536 958.412 162.014 960.482 162.014C967.317 162.014 953.681 141.041 944.599 137.586C933.883 133.511 935.063 133.445 930.079 138.429ZM663.172 142.525C666.481 145.036 668.277 148.002 667.167 149.115C666.054 150.228 668.807 150.367 673.288 149.424L681.434 147.707L673.597 152.4L665.763 157.092L669.685 161.015C671.845 163.176 676.031 164.012 678.989 162.874L684.371 160.81L682.145 166.613C680.661 170.48 681.687 172.419 685.214 172.419C688.13 172.419 689.632 170.99 688.553 169.245C687.475 167.501 688.553 165.357 690.95 164.476L695.305 162.881L691.342 158.656L687.381 154.435L680.071 158.348C676.052 160.498 672.764 160.81 672.764 159.038C672.764 157.269 675.487 154.775 678.809 153.499L684.857 151.179L676.208 144.533C671.453 140.881 665.222 137.905 662.361 137.922L657.159 137.957L663.172 142.525ZM859.63 146.184C858.933 158.65 860.58 167.064 864.703 172.093L868.698 176.973L870.89 166.89L873.078 156.811L873.491 166.349C874.177 182.304 887.817 174.989 887.719 158.719C887.64 145.532 882.32 139.494 870.56 139.247L860.029 139.025L859.63 146.184ZM932.854 144.998C932.854 146.725 934.702 148.14 936.966 148.14C939.227 148.14 944.911 151.654 949.603 155.944L958.127 163.748L952.267 154.571C946.506 145.56 932.854 138.824 932.854 144.998ZM902.499 156.364C906.796 163.075 912.241 169.377 914.595 170.366L918.882 172.162L914.925 164.487C912.75 160.266 909.872 154.47 908.533 151.609C907.195 148.747 903.533 145.9 900.394 145.282L894.686 144.159L902.499 156.364ZM820.322 162.947C822.392 168.351 855.416 185.124 858.302 182.238C859.269 181.27 851.879 175.932 841.874 170.38C818.029 157.137 818.102 157.162 820.322 162.947ZM771.428 172.124C750.084 184.368 748.017 186.861 740.752 209.149L734.998 226.8L738.341 235.162L741.681 243.521L741.979 229.647C742.458 207.207 752.83 189.046 772.302 176.546C781.787 170.463 791.538 165.482 793.976 165.482H798.405L792.804 174.032C785.005 185.935 785.813 195.099 795.315 202.577C799.778 206.087 804.477 211.272 805.757 214.099C807.04 216.929 807.21 215.34 806.135 210.571C801.051 188.006 800.433 175.638 804.165 171.143L808.156 166.329L800.281 164.22C789.485 161.327 790.949 160.925 771.428 172.124ZM929.875 172.419C929.875 175.28 931.213 180.743 932.854 184.558C934.733 188.932 935.832 189.57 935.832 186.293C935.832 183.431 934.494 177.968 932.854 174.153C930.974 169.78 929.875 169.141 929.875 172.419ZM811.479 178.662C811.479 185.602 817.835 193.285 823.443 193.125C825.447 193.066 824.355 191.429 821.015 189.483C812.574 184.565 813.438 179.404 822.749 179.113L830.552 178.867L823.616 175.887C813.23 171.424 811.479 171.822 811.479 178.662ZM850.239 189.307C844.558 192.91 848.03 215.337 855.191 221.278L860.029 225.294L860.067 218.798C860.088 215.229 861.072 206.454 862.255 199.299L864.405 186.293L859.616 186.345C856.98 186.376 852.763 187.708 850.239 189.307ZM866.937 198.508C864.87 203.94 863.642 211.515 864.207 215.34L865.23 222.298L872.055 209.558L878.88 196.823L874.784 192.726L870.689 188.63L866.937 198.508ZM915.514 208.143C915.514 220.897 920.685 227.913 930.079 227.913C934.369 227.913 936.321 225.291 936.321 219.527C936.321 214.914 937.247 208.279 938.381 204.786C939.789 200.454 939.446 199.809 937.31 202.767L934.178 207.103L927.447 202.011C917.487 194.478 915.514 195.491 915.514 208.143ZM884.304 205.497C884.304 206.746 887.171 211.91 890.674 216.974C894.18 222.038 898.033 228.909 899.236 232.249L901.424 238.318H891.825C882.556 238.318 873.9 243.68 873.9 249.417C873.9 250.943 879.362 252.192 886.038 252.192H898.175V259.128C898.175 262.944 896.76 266.065 895.03 266.065C893.296 266.065 891.347 274.653 890.695 285.145L889.505 304.228L897.221 304.221L904.937 304.217L903.061 292.945C902.031 286.747 900.519 278.322 899.704 274.23C898.834 269.849 900.273 266.003 903.21 264.876L908.197 262.961L905.02 251.88C903.273 245.786 902.638 239.515 903.609 237.944C905.655 234.635 893.036 208.622 887.82 205.4C885.885 204.203 884.304 204.248 884.304 205.497ZM954.354 214.733C947.21 221.878 949.77 224.001 960.596 219.915C966.318 217.754 971 214.768 971 213.28C971 209.052 958.984 210.103 954.354 214.733ZM940.465 222.711C940.535 228.433 941.312 230.355 942.192 226.98C943.073 223.605 943.014 218.923 942.064 216.575C941.114 214.227 940.396 216.988 940.465 222.711ZM770.041 224.445C771.459 235.89 769.514 241.846 762.062 248.886L754.259 256.26L762.814 255.091C767.61 254.439 773.575 249.975 776.394 244.932L781.426 235.942L775.413 227.591C771.962 222.804 769.674 221.462 770.041 224.445ZM757.727 234.85C754.276 238.665 753.198 241.787 755.334 241.787C757.47 241.787 760.886 238.665 762.929 234.85C764.971 231.035 766.046 227.913 765.321 227.913C764.597 227.913 761.177 231.035 757.727 234.85ZM913.659 235.044C912.282 237.271 913.167 240.337 915.622 241.852C921.368 245.404 930.072 242.109 928.377 237.025C926.546 231.524 916.659 230.195 913.659 235.044ZM935.715 242.917C934.421 249.247 934.906 251.526 937.077 249.355C938.926 247.506 939.827 243.094 939.075 239.553L937.712 233.116L935.715 242.917ZM854.934 249.74C853.45 253.159 853.211 256.933 854.397 258.123C857.92 261.643 860.76 256.697 859.137 249.861L857.636 243.521L854.934 249.74ZM908.579 248.723C908.579 250.631 910.233 252.192 912.251 252.192C914.269 252.192 914.959 250.631 913.78 248.723C912.601 246.816 910.951 245.255 910.108 245.255C909.265 245.255 908.579 246.816 908.579 248.723ZM738.654 258.466C738.654 261.917 736.361 267.768 733.563 271.472C727.973 278.864 726.457 293.812 731.298 293.812C732.973 293.812 735.914 289.522 737.828 284.274C741.591 273.98 743.366 252.192 740.443 252.192C739.458 252.192 738.654 255.015 738.654 258.466ZM885.171 262.403C877.205 269.045 875.842 275.624 879.553 289.477C882.941 302.119 887.771 298.418 887.771 283.178C887.771 275.423 889.387 266.058 891.361 262.368C895.765 254.141 895.064 254.144 885.171 262.403ZM915.788 264.619C915.955 268.66 916.777 269.482 917.883 266.717C918.885 264.213 918.76 261.22 917.609 260.068C916.458 258.917 915.639 260.963 915.788 264.619ZM863.496 269.329C863.496 271.348 860.282 273.002 856.356 273.002C852.43 273.002 850.183 274.566 851.366 276.481C852.767 278.749 855.69 278.791 859.782 276.602C863.233 274.757 867.037 274.233 868.244 275.437C869.447 276.64 870.432 275.898 870.432 273.786C870.432 271.67 868.872 268.979 866.964 267.799C865.057 266.62 863.496 267.31 863.496 269.329ZM919.124 276.269C914.973 282.103 912.851 286.827 914.411 286.768C918.216 286.619 930.523 269.513 928.37 267.362C927.437 266.429 923.275 270.439 919.124 276.269ZM749.057 271.316C749.057 272.294 750.618 275.808 752.525 279.12C754.429 282.433 757.595 289.65 759.558 295.161C761.517 300.669 763.99 304.311 765.051 303.253C767.198 301.106 754.03 269.534 750.985 269.534C749.924 269.534 749.057 270.335 749.057 271.316ZM801.942 278.766C796.796 280.844 796.085 290.344 801.075 290.344C802.982 290.344 804.605 287.614 804.678 284.274C804.758 280.778 806.891 282.981 809.713 289.477C815.397 302.56 821.882 304.315 821.882 292.772C821.882 279.98 813.511 274.098 801.942 278.766ZM797.881 299.993C797.732 302.438 794.098 305.851 789.804 307.578C785.445 309.33 784.298 310.787 787.204 310.88C795.301 311.14 802.115 305.515 800.038 300.284L798.155 295.546L797.881 299.993ZM923.109 310.287L922.641 323.294L925.959 318.091C930.065 311.654 930.426 297.281 926.48 297.281C924.881 297.281 923.365 303.135 923.109 310.287ZM688.352 307.741C684.683 319.305 690.027 347.916 697.317 355.74C700.979 359.673 703.975 364.983 703.975 367.543C703.975 380.393 721.235 384.493 733.178 374.476L740.388 368.431L732.585 377.303C722.608 388.645 722.76 392.363 733.41 397.215C745.738 402.83 752.49 398.987 752.73 386.22C752.841 380.223 753.385 369.399 753.94 362.16L754.942 349.001L749.55 350.038C746.585 350.61 743.075 354.97 741.754 359.729C740.429 364.487 739.191 366.239 739 363.624L738.654 358.862L733.369 363.249C730.462 365.663 727.081 366.634 725.854 365.41C724.63 364.182 725.34 363.18 727.439 363.18C732.474 363.18 735.924 351.8 733.112 344.468L730.879 338.652L722.327 344.256C717.625 347.34 713.324 349.345 712.769 348.717C710.172 345.765 697.046 318.049 697.098 315.628C697.129 314.12 700.403 317.963 704.374 324.161C709.232 331.746 714.316 335.433 719.92 335.433C738.903 335.433 722.24 310.447 698.187 302.837L690.662 300.458L688.352 307.741ZM808.011 309.264C808.011 315.292 787.779 319.842 776.668 316.315L768.997 313.88L771.64 318.157C773.447 321.081 780.025 321.84 792.478 320.553C802.486 319.52 812.027 319.842 813.677 321.268C817.003 324.136 842.97 331.964 849.16 331.964C855.964 331.964 853.464 324.865 842.956 314.355L832.82 304.217H820.415C811.874 304.217 808.011 305.789 808.011 309.264ZM879.102 314.623L872.166 317.602L880.548 317.848C885.157 317.98 887.9 319.118 886.644 320.373C885.389 321.629 886.103 324.75 888.226 327.31C890.352 329.87 890.875 331.964 889.391 331.964C887.91 331.964 889.523 335.086 892.973 338.901C899.704 346.341 913.649 348.196 917.383 342.151C918.635 340.122 913.007 332.318 904.875 324.809C888.895 310.055 889.328 310.228 879.102 314.623ZM825.946 318.018C831.041 319.555 837.283 321.878 839.818 323.179C842.349 324.48 841.392 323.085 837.692 320.082C833.988 317.078 827.746 314.758 823.821 314.921L816.68 315.219L825.946 318.018ZM802.604 333.518C806.308 336.48 815.539 338.901 823.124 338.901C838.157 338.901 837.529 333.806 822.461 333.529C817.374 333.435 809.311 332.183 804.543 330.747L795.873 328.135L802.604 333.518ZM845.228 358.102C831.641 367.335 829.272 375.343 836.26 388.402L840.231 395.828L848.436 377.234C852.951 367.006 857.563 359.559 858.69 360.683C859.814 361.81 858.236 366.301 855.181 370.665C852.125 375.028 849.625 383.123 849.625 388.655V398.713L854.636 394.551C857.393 392.266 862.189 382.745 865.293 373.398C873.858 347.6 867.647 342.866 845.228 358.102ZM763.393 375.534C768.352 380.497 814.131 389.429 817.475 386.085C818.293 385.267 809.866 382.891 798.748 380.81C787.63 378.725 773.922 375.482 768.286 373.602L758.042 370.183L763.393 375.534ZM740.388 383.99C741.567 385.898 743.217 387.459 744.06 387.459C744.903 387.459 745.589 385.898 745.589 383.99C745.589 382.083 743.935 380.522 741.917 380.522C739.899 380.522 739.208 382.083 740.388 383.99ZM824.424 391.357C826.779 393.729 829.577 394.794 830.642 393.726C831.71 392.658 829.785 390.719 826.366 389.415L820.148 387.049L824.424 391.357ZM768.481 393.826C767.6 395.255 769.889 396.65 773.571 396.927C781.537 397.527 782.238 395.894 775.177 393.185C772.378 392.11 769.365 392.398 768.481 393.826ZM779.54 404.048L773.61 416.94L780.407 408.751C784.145 404.249 787.204 398.394 787.204 395.744C787.204 388.61 786.076 389.831 779.54 404.048ZM769.864 404.8C766.74 406.819 766.31 408.182 768.793 408.217C771.064 408.245 773.887 406.708 775.066 404.8C777.726 400.493 776.526 400.493 769.864 404.8ZM823.099 406.628C821.823 409.961 822.936 413.742 825.711 415.5C832.584 419.846 837.488 417.457 837.488 409.76C837.488 401.384 826.068 398.897 823.099 406.628ZM801.942 416.804C797.649 421.095 794.139 426.395 794.139 428.576C794.139 433.696 815.817 433.758 820.922 428.652L824.812 424.761L821.057 416.513C816.497 406.503 812.176 406.569 801.942 416.804ZM850.09 432.547L850.343 451.624L853.745 438.832C856.051 430.168 855.968 424.015 853.492 419.756L849.837 413.471L850.09 432.547ZM759.461 422.215C759.461 424.164 763.23 427.477 767.836 429.575C772.444 431.677 776.98 436.325 777.917 439.907C780.212 448.7 787.204 448.207 787.204 439.255C787.204 426.374 780.67 418.674 769.743 418.674C764.087 418.674 759.461 420.269 759.461 422.215ZM868.32 434.975C877.742 453.722 873.834 472.663 854.504 501.915L848.772 510.586L856.214 501.915C860.306 497.146 866.295 488.95 869.524 483.706C872.752 478.462 876.31 474.168 877.43 474.168C882.23 474.168 874.871 435.516 869 429.88L862.744 423.877L868.32 434.975ZM766.396 436.016C766.396 437.923 768.051 439.484 770.069 439.484C772.087 439.484 772.777 437.923 771.598 436.016C770.419 434.108 768.768 432.547 767.926 432.547C767.083 432.547 766.396 434.108 766.396 436.016ZM812.883 457.364C811.42 459.729 811.922 460.43 814.114 459.074C816.153 457.815 818.612 458.744 819.579 461.141C820.637 463.77 821.442 463.09 821.608 459.427C821.917 452.563 816.621 451.311 812.883 457.364ZM799.698 459.715C798.717 461.307 800.114 462.608 802.809 462.608C805.503 462.608 806.901 461.307 805.92 459.715C804.938 458.127 803.537 456.826 802.809 456.826C802.081 456.826 800.68 458.127 799.698 459.715ZM785.997 465.369C783.278 472.458 800.659 485.506 809.613 483.099C813.5 482.055 817.683 481.178 818.91 481.153C820.138 481.126 822.069 478.684 823.207 475.722C824.341 472.76 823.862 471.209 822.139 472.274C820.415 473.339 818.348 473.03 817.544 471.588C816.739 470.145 816.559 470.918 817.142 473.301C818.369 478.344 805.94 479.235 802.903 474.321C801.775 472.496 798.311 471.979 795.204 473.169L789.558 475.337L791.525 467.817C793.713 459.448 789.062 457.388 785.997 465.369ZM833.08 474.817C834.807 480.002 842.689 482.856 842.689 478.295C842.689 476.433 840.217 473.963 837.196 472.801C833.822 471.508 832.234 472.281 833.08 474.817ZM899.909 481.105C896.458 484.92 895.245 488.042 897.214 488.042C899.181 488.042 902.659 485.794 904.941 483.044C907.219 480.297 913.264 477.407 918.368 476.627L927.652 475.209L916.919 474.688C910.091 474.355 903.904 476.69 899.909 481.105ZM838.497 495.419C837.772 497.593 832.317 499.553 826.37 499.775L815.56 500.181L819.146 504.516C821.119 506.903 826.349 508.852 830.77 508.852C842.464 508.852 843.501 513.243 835.816 530.179C832.05 538.479 828.967 547.611 828.96 550.472C828.957 553.334 832.993 546.817 837.935 535.988C844.021 522.656 848.477 516.898 851.74 518.151C854.393 519.167 856.561 518.272 856.561 516.16C856.561 512.781 852.233 511.002 845.803 511.738C844.656 511.869 844.413 508.335 845.262 503.885C846.837 495.644 840.9 488.211 838.497 495.419ZM886.038 494.978C887.217 496.886 890.82 498.422 894.045 498.395L899.909 498.339L894.707 494.978C887.917 490.587 883.326 490.587 886.038 494.978ZM870.432 499.772C870.432 502.633 871.993 505.938 873.9 507.118C875.807 508.297 877.368 506.92 877.368 504.059C877.368 501.197 875.807 497.892 873.9 496.712C871.993 495.533 870.432 496.91 870.432 499.772ZM880.558 513.794C877.85 519.337 869.784 526.887 862.629 530.574C845.169 539.575 845.918 544.698 863.458 536.221C878.034 529.177 889.429 515.556 886.953 508.13C886.114 505.609 883.367 508.044 880.558 513.794ZM813.237 536.561C812.023 538.524 813.414 539.107 816.5 537.924C822.506 535.617 823.606 533.13 818.619 533.13C816.823 533.13 814.402 534.674 813.237 536.561ZM809.828 550.379L803.6 557.263L809.422 559.501C812.626 560.728 816.219 560.76 817.409 559.573C818.598 558.384 816.58 557.361 812.925 557.298L806.277 557.187L812.959 552.134C816.635 549.352 818.837 546.269 817.852 545.284C816.864 544.299 813.258 546.591 809.828 550.379ZM869.954 554.763C872.551 558.079 873.789 563.101 872.707 565.924C871.622 568.751 871.896 571.779 873.317 572.656C878.856 576.079 876.879 557.867 871.23 553.441L865.23 548.738L869.954 554.763ZM833.26 563.819C823.307 566.971 813.497 571.241 811.465 573.312L807.768 577.075L827.83 575.49C848.782 573.832 856.561 570.232 856.561 562.189C856.561 556.497 856.339 556.511 833.26 563.819ZM811.479 588.625C807.664 592.44 804.543 597.902 804.543 600.764C804.543 607.545 823.894 607.545 835.754 600.764C847.471 594.063 848.904 594.316 850.645 603.365L852.15 611.169L852.621 601.676L853.093 592.187L840.532 586.935C824.07 580.058 819.794 580.307 811.479 588.625ZM863.084 592.852L864.97 604.232L866.26 596.03C866.971 591.517 866.122 586.394 864.374 584.646C862.449 582.721 861.943 585.957 863.084 592.852ZM794.139 590.359L789.822 595.561H795.079C797.968 595.561 801.231 593.22 802.33 590.359C803.426 587.497 803.003 585.156 801.391 585.156C799.778 585.156 796.515 587.497 794.139 590.359ZM770.957 595.586C766.792 597.264 761.718 601.745 759.686 605.543C754.939 614.415 754.904 630.245 759.634 630.245C766.431 630.245 785.494 618.73 781.135 617.256C776.002 615.525 775.239 602.498 780.268 602.498C782.175 602.498 783.736 600.157 783.736 597.295C783.736 591.455 781.839 591.202 770.957 595.586ZM871.653 617.256L871.14 631.979L873.907 623.308C877.59 611.773 877.975 602.495 874.767 602.515C873.338 602.526 871.934 609.161 871.653 617.256ZM836.6 608.269C834.203 609.237 833.288 611.721 834.568 613.788C836.045 616.181 834.793 616.746 831.121 615.335C827.947 614.117 825.35 614.495 825.35 616.174C825.35 617.856 821.411 618.796 816.597 618.269C805.788 617.083 803.385 620.398 809.242 628.41L813.719 634.535L824.268 632.219C837.56 629.298 850.013 617.953 847.402 611.145C845.332 605.744 843.841 605.349 836.6 608.269ZM754.516 643.623C748.579 655.103 747.569 661.461 751.675 661.461C754.464 661.461 763.258 636.356 761.195 634.289C760.522 633.62 757.515 637.82 754.516 643.623ZM747.902 667.242C746.63 668.512 745.725 673.586 745.888 678.515L746.186 687.473L749.241 677.242C752.393 666.687 751.929 663.216 747.902 667.242ZM767.263 667.426C764.881 668.279 762.929 671.453 762.929 674.484C762.929 677.512 760.199 683.072 756.86 686.839L750.791 693.685L758.23 689.787L765.668 685.885L769.923 691.015C775.305 697.497 783.736 697.681 783.736 691.313C783.736 685.892 774.393 681.206 769.552 684.199C765.349 686.794 765.568 683.363 770.145 674.81C774.341 666.965 773.634 665.151 767.263 667.426ZM714.535 690.751L710.13 696.061L715.207 698.01C718.457 699.259 719.702 703.022 718.661 708.457L717.038 716.955H722.719C725.843 716.955 730.23 712.931 732.47 708.013L736.545 699.075L732.893 693.272C727.945 685.417 719.882 684.31 714.535 690.751ZM742.704 717.128C742.385 723.898 740.426 731.137 738.352 733.211L734.582 736.981L738.376 739.329C743.699 742.621 746.293 733.908 744.67 718.186L743.287 704.815L742.704 717.128ZM789.43 740.366C786.354 758.984 786.711 775.917 790.186 775.917C791.823 775.917 793.442 764.992 793.779 751.638C794.455 724.842 792.731 720.381 789.43 740.366ZM768.13 750.775C762.46 755.02 750.448 770.371 754.755 767.867C757.13 766.483 759.589 769.025 760.889 774.207L763.06 782.854H771.598H780.136L782.224 774.537C786.791 756.335 778.77 742.808 768.13 750.775ZM731.895 775.917C729.169 788.316 726.589 804.316 726.166 811.468L725.396 824.474H731.333C739.593 824.474 745.589 817.617 745.589 808.173C745.589 799.547 739.097 797.671 732.411 804.358C727.019 809.751 727.154 808.114 733.705 788.892C736.701 780.089 738.64 768.495 738.009 763.129L736.857 753.373L731.895 775.917ZM744.435 764.357C743.162 765.626 742.121 768.28 742.121 770.253C742.121 772.424 743.737 772.22 746.224 769.733C748.481 767.475 749.522 764.822 748.537 763.837C747.552 762.848 745.704 763.084 744.435 764.357ZM794.139 794.993L782.376 807.132H788.258C795.537 807.132 808.011 795.083 808.011 788.056C808.011 780.943 807.518 781.189 794.139 794.993ZM815.141 791.292L811.014 796.263L825.985 803.477C834.217 807.445 837.834 809.779 834.02 808.669C808.5 801.229 803.388 802.953 812.793 815.814L817.575 822.355L831.866 818.072C847.964 813.251 848.501 812.103 840.29 800.102C830.205 785.361 822.343 782.611 815.141 791.292ZM788.573 818.127C787.197 820.357 786.125 838.057 786.194 857.459L786.319 892.735L796.13 914.604C801.526 926.628 806.499 934.797 807.178 932.757C807.858 930.714 805.188 922.713 801.238 914.971C796.886 906.439 793.175 890.426 791.812 874.28L789.562 847.657L793.584 850.144C795.845 851.542 797.656 850.64 797.718 848.091C797.777 845.593 801.678 847.931 806.388 853.283C811.094 858.634 814.946 861.638 814.946 859.956C814.946 858.274 811.045 853.234 806.277 848.753C801.508 844.272 797.583 842.049 797.555 843.814C797.524 845.576 795.991 844.678 794.143 841.816C792.298 838.955 791.715 831.539 792.849 825.341C794.944 813.882 793.109 810.785 788.573 818.127ZM716.979 829.944C715.551 831.387 714.479 837.38 714.597 843.263L714.819 853.956L718.197 845.5C721.911 836.201 721.096 825.792 716.979 829.944ZM732.169 843.387C735.276 854.223 744.157 865.214 747.282 862.089C748.305 861.066 749.511 854.323 749.966 847.102L750.791 833.971L740.01 833.558L729.231 833.145L732.169 843.387ZM690.246 860.629C681.274 877.391 698.888 892.722 710.727 878.456L714.861 873.476L711.07 866.397C708.99 862.502 704.426 857.788 700.934 855.919L694.584 852.52L690.246 860.629ZM797.607 857.001C797.607 857.719 800.336 860.452 803.676 863.07L809.745 867.829L804.987 861.759C800.454 855.981 797.607 854.146 797.607 857.001ZM715.395 882.736C713.092 884.2 711.559 890.027 711.982 895.687L712.756 905.981L721.904 907.046C728.274 907.788 732.724 905.714 736.583 900.206C739.628 895.857 742.121 891.237 742.121 889.94C742.121 888.227 722.795 879.587 719.931 880.02C719.736 880.052 717.697 881.273 715.395 882.736ZM724.782 893.842L716.113 896.62L723.711 896.963C727.889 897.154 732.273 895.749 733.452 893.842C734.631 891.934 735.113 890.53 734.523 890.72C733.934 890.911 729.55 892.316 724.782 893.842ZM684.704 902.228C681.004 904.934 678.895 908.066 680.016 909.186C681.136 910.31 684.888 908.097 688.349 904.268C695.718 896.128 694.206 895.281 684.704 902.228ZM769.483 908.929C766.414 913.039 755.49 919.345 745.208 922.949C734.929 926.549 724.956 931.033 723.048 932.913C720.756 935.171 721.342 935.677 724.782 934.401C727.643 933.34 737.787 929.854 747.323 926.656C761.954 921.748 780.323 906.495 776.273 902.617C775.611 901.979 772.555 904.819 769.483 908.929ZM691.251 912.918C686.48 925.175 681.947 979.004 686.58 968.412C688.252 964.597 689.726 953.595 689.861 943.96C689.993 934.325 691.796 924.752 693.866 922.681C695.933 920.614 697.105 915.228 696.467 910.716L695.305 902.513L691.251 912.918ZM841.521 912.838C845.543 915.654 849.819 921.898 851.029 926.712L853.225 935.462L860.961 935.22C865.216 935.084 871.819 933.562 875.634 931.831L882.57 928.689L869.603 930.721L856.634 932.754L854.338 926.302C851.251 917.642 842.478 907.715 837.914 907.715C835.875 907.715 837.501 910.022 841.521 912.838ZM655.425 914.545C655.425 916.39 652.928 916.945 649.873 915.772C644.255 913.615 638.235 919.713 638.138 927.659C638.072 933.135 647.248 933.34 650.587 927.936C652.297 925.168 651.166 924.617 647.033 926.205C643.003 927.752 641.46 927.079 642.431 924.194C643.229 921.807 646.09 919.706 648.788 919.518C651.486 919.335 656.032 918.287 658.893 917.194C661.754 916.098 666.435 914.42 669.296 913.466C672.157 912.512 670.205 911.607 664.962 911.458C659.718 911.309 655.425 912.696 655.425 914.545ZM721.314 946.072C721.314 947.612 724.824 949.957 729.117 951.289C733.41 952.62 743.599 956.821 751.762 960.626L766.604 967.541L781.246 961.947C789.298 958.874 798.041 952.825 800.669 948.51L805.455 940.665L797.194 947.952C783.472 960.064 781.024 960.341 767.378 951.309L754.249 942.618L737.78 942.947C728.725 943.131 721.314 944.536 721.314 946.072ZM810.175 947.737C808.985 950.834 808.111 955.194 808.229 957.424C808.351 959.651 809.946 957.736 811.773 953.169C813.601 948.597 814.475 944.241 813.715 943.481C812.956 942.722 811.361 944.636 810.175 947.737ZM821.882 952.437C821.882 954.23 835.129 966.043 851.321 978.689C867.516 991.335 882.466 1004.86 884.546 1008.76C886.631 1012.64 889.113 1015.05 890.067 1014.09C894.253 1009.91 882.188 996.756 853.128 973.83C835.944 960.272 821.882 950.647 821.882 952.437ZM801.814 975.082L801.984 994.106L815.328 1002.94C822.666 1007.79 829.435 1011.77 830.368 1011.77C833.09 1011.77 827.892 1000.05 822.947 995.049C820.46 992.531 817.405 986.288 816.157 981.176C814.908 976.063 811.132 968.322 807.765 963.969L801.644 956.058L801.814 975.082ZM690.104 986.621C690.104 994.657 694.979 997.096 698.773 990.957C699.952 989.049 704.076 987.488 707.935 987.488C719.598 987.488 713.141 979.497 701.194 979.147L690.104 978.817V986.621ZM671.46 992.826C668.114 1001.55 669.099 1003.8 673.187 996.766C675.213 993.284 676.139 989.704 675.244 988.813C674.353 987.918 672.646 989.725 671.46 992.826ZM677.425 998.386L670.025 1010.93L676.891 1009.13C684.645 1007.1 687.787 1001.23 686.022 992.07L684.825 985.841L677.425 998.386ZM840.269 1011.77C841.084 1014.63 840.491 1019.43 838.951 1022.44C836.326 1027.57 841.763 1048.72 849.368 1062.97C851.14 1066.28 853.499 1071.91 854.615 1075.46L856.644 1081.92L864.405 1079.52C868.674 1078.2 876.848 1076.62 882.57 1076.01C888.292 1075.4 896.483 1073.78 900.776 1072.41L908.579 1069.92V1077.84C908.579 1082.2 909.515 1084.82 910.656 1083.68C911.8 1082.54 911.613 1074.95 910.24 1066.82L907.743 1052.05L902.846 1061.39L897.953 1070.73H885.698C871.736 1070.73 861.149 1065.94 851.896 1055.44L845.495 1048.18L847.128 1033.51C848.207 1023.81 847.069 1016.76 843.771 1012.7L838.784 1006.56L840.269 1011.77ZM898.778 1027.37C904.174 1040.8 908.579 1045.96 908.579 1038.86C908.579 1035.83 905.433 1029.66 901.587 1025.16L894.596 1016.97L898.778 1027.37ZM915.868 1075.93C915.625 1083.56 912.532 1099.17 908.995 1110.62C901.532 1134.76 896.184 1176.42 900.921 1173.49C902.662 1172.42 905.027 1160.95 906.179 1148.01C907.33 1135.07 911.249 1116.5 914.89 1106.75L921.51 1089.01L918.909 1075.53L916.312 1062.06L915.868 1075.93ZM905.111 1092.81C905.111 1095.41 901.813 1101.74 897.78 1106.86C893.746 1111.99 891.322 1117.06 892.391 1118.12C894.742 1120.48 908.547 1098.52 908.565 1092.41C908.572 1090.02 907.798 1088.07 906.845 1088.07C905.891 1088.07 905.111 1090.2 905.111 1092.81ZM866.871 1121.17L859.276 1133.46L861.572 1142.85C862.834 1148.01 863.746 1156.71 863.597 1162.18C863.302 1172.93 869.322 1182.81 874.292 1179.74C878.259 1177.29 878.207 1180.6 874.164 1188.17L870.956 1194.15L877.704 1194.66C881.418 1194.94 883.548 1193.7 882.441 1191.91C881.332 1190.12 882.282 1188.65 884.553 1188.65C887.331 1188.65 888.035 1184.69 886.71 1176.51C885.59 1169.61 886.193 1164.38 888.111 1164.38C890.22 1164.38 890.14 1161.86 887.893 1157.67C883.357 1149.19 883.322 1146.02 887.799 1148.79C889.779 1150.01 889.505 1147.02 887.165 1141.88L883.034 1132.82L879.837 1138.54C878.079 1141.68 877.545 1148.78 878.651 1154.31C879.771 1159.91 879.164 1164.38 877.281 1164.38C872.426 1164.38 873.116 1146.69 878.582 1131C886.787 1107.45 879.254 1101.13 866.871 1121.17ZM884.304 1127.19C884.304 1129.63 887.425 1134.29 891.239 1137.56L898.175 1143.5V1137.29C898.175 1130.88 891.968 1122.75 887.078 1122.75C885.552 1122.75 884.304 1124.75 884.304 1127.19ZM899.167 1197.33C899.195 1206.86 899.867 1210.35 900.665 1205.08C901.459 1199.81 901.438 1192 900.616 1187.74C899.794 1183.47 899.143 1187.79 899.167 1197.33ZM852.153 1208.09C848.436 1211.81 859.429 1229.62 870.491 1237.8L880.836 1245.45L880.888 1256.07C880.947 1267.85 886.034 1278.26 889.866 1274.43C891.222 1273.07 894.43 1273.7 896.989 1275.82L901.643 1279.68V1269.13C901.643 1263.34 900.696 1256.12 899.538 1253.1C895.99 1243.85 891.239 1247 891.239 1258.6C891.239 1273.58 886.606 1267.93 885.715 1251.86L885.001 1238.95L869.704 1222.39C861.287 1213.29 853.391 1206.85 852.153 1208.09ZM880.836 1223.13C880.836 1224.93 882.379 1227.35 884.265 1228.52C886.228 1229.73 886.811 1228.34 885.628 1225.25C883.322 1219.25 880.836 1218.15 880.836 1223.13ZM896.881 1229.16L890.386 1237.91L897.748 1233.97L905.111 1230.03L905.163 1276.11C905.197 1306.22 906.345 1320.4 908.474 1317.03C912.345 1310.91 910.33 1227.13 906.22 1223.16C904.656 1221.65 900.453 1224.35 896.881 1229.16ZM912.046 1273.42C912.046 1276.4 913.607 1278.83 915.514 1278.83C917.422 1278.83 918.982 1277.36 918.982 1275.57C918.982 1273.77 917.422 1271.34 915.514 1270.16C913.607 1268.98 912.046 1270.45 912.046 1273.42ZM863.205 1309.08L859.616 1318.52L863.621 1327.29L867.623 1336.06L872.215 1325.66C874.739 1319.93 876.931 1317.3 877.087 1319.81C877.24 1322.32 875.624 1327.64 873.487 1331.63L869.61 1338.88L877.822 1345.2L886.038 1351.52L878.113 1351.59L870.189 1351.67L873.9 1358.6C875.943 1362.42 878.866 1365.54 880.402 1365.54C891.177 1365.54 891.874 1312.23 881.203 1304.11C872.419 1297.41 867.079 1298.89 863.205 1309.08ZM900.776 1338.35C892.741 1346.8 892.963 1350.85 901.057 1343.53C904.549 1340.36 908.45 1338.82 909.726 1340.1C911.003 1341.37 912.046 1340.69 912.046 1338.58C912.046 1331.85 907.042 1331.75 900.776 1338.35ZM846.604 1342.1C851.033 1350.37 868.549 1369.01 871.899 1369.01C876.584 1369.01 873.064 1362.89 860.431 1349.07C845.599 1332.84 840.192 1330.11 846.604 1342.1ZM905.111 1356.62C905.111 1364.08 887.314 1376.64 879.598 1374.62L872.901 1372.87L876.629 1376.6L880.361 1380.33L873.661 1392.83C865.272 1408.48 865.133 1424.58 873.258 1439.74L879.553 1451.49L877.996 1421.84L876.442 1392.2L894.242 1375.74C911.179 1360.08 916.19 1351.67 908.579 1351.67C906.671 1351.67 905.111 1353.89 905.111 1356.62ZM837.734 1360.59C829.754 1368.57 831.079 1372.91 840.758 1370.48C853.315 1367.33 857.438 1371.6 849.5 1379.54C840.366 1388.68 840.921 1393.29 851.154 1393.29C862.043 1393.29 865.383 1398.72 857.5 1403.61L851.359 1407.42L857.736 1406.42C861.242 1405.88 866.184 1400.49 868.719 1394.45L873.321 1383.46L862.907 1369.3C851.65 1353.99 846.213 1352.11 837.734 1360.59ZM905.19 1386.39C905.145 1389.27 910.555 1407.22 917.213 1426.27C930.1 1463.17 932.105 1483.47 925.46 1509.86L921.538 1525.44L910.254 1513.13L898.973 1500.81H886.634H874.292L868.896 1508.52C865.927 1512.76 863.559 1517.83 863.635 1519.79C863.711 1521.75 866.101 1519.06 868.948 1513.81L874.122 1504.28L885.282 1504.33C896.073 1504.38 908.346 1509.33 905.01 1512.29C904.112 1513.08 898.695 1515.38 892.973 1517.4L882.57 1521.07L889.505 1521.69L896.441 1522.31L887.771 1525.09L879.102 1527.87L900.668 1528.21L922.232 1528.56L920.55 1534.63C919.624 1537.96 921.94 1534.45 925.692 1526.82C934.539 1508.83 937.927 1481.16 933.606 1462.14C927.243 1434.12 905.35 1375.76 905.19 1386.39ZM910.312 1535.49C909.133 1537.4 909.824 1538.96 911.842 1538.96C913.86 1538.96 915.514 1537.4 915.514 1535.49C915.514 1533.58 914.828 1532.02 913.985 1532.02C913.142 1532.02 911.492 1533.58 910.312 1535.49ZM851.574 1552.61L841.826 1562.79L844.115 1571.91C845.647 1578.02 850.471 1582.74 858.711 1586.18L871.015 1591.32L885.691 1584.22C893.76 1580.31 902.801 1577.11 905.78 1577.11C914.727 1577.11 919.811 1567.98 917.279 1556.44C914.835 1545.31 908.509 1542.82 902.149 1550.49L898.341 1555.08L902.593 1559.39L906.845 1563.71L900.009 1568.75C896.247 1571.53 890.785 1572.72 887.872 1571.41C884.955 1570.1 877.912 1569.25 872.218 1569.52L861.867 1570.02L871.746 1564.9C883.194 1558.96 889.107 1558.27 886.038 1563.24C884.858 1565.15 884.713 1566.71 885.712 1566.71C886.71 1566.71 889.075 1563.81 890.965 1560.28L894.405 1553.85L885.708 1555.52C879.913 1556.62 874.396 1554.72 869.166 1549.81L861.322 1542.44L851.574 1552.61ZM888.045 1593.01C888.212 1597.05 889.034 1597.87 890.14 1595.11C891.142 1592.6 891.017 1589.61 889.866 1588.46C888.715 1587.31 887.896 1589.35 888.045 1593.01ZM802.937 1609.2C804.3 1617.3 806.738 1627.45 808.358 1631.74L811.305 1639.54L822.662 1639.2L834.02 1638.85L827.084 1636.6C823.134 1635.31 819.652 1630.61 818.997 1625.67C818.366 1620.9 815.536 1613.1 812.706 1608.33C809.88 1603.56 815.359 1608.24 824.882 1618.73L842.197 1637.81L845.405 1629.24C852.85 1609.35 839.423 1594.6 813.774 1594.51L800.465 1594.45L802.937 1609.2ZM879.296 1611.8L873.168 1623.94L880.877 1616.49C885.118 1612.4 887.879 1606.94 887.005 1604.35C886.051 1601.52 882.993 1604.47 879.296 1611.8ZM857.292 1635.74C851.016 1638.95 846.83 1642.53 847.988 1643.68C849.143 1644.84 844.59 1647.6 837.865 1649.82C830.829 1652.15 818.504 1661.67 808.819 1672.27C799.563 1682.4 788.82 1691.69 784.946 1692.92C781.069 1694.15 774.477 1698.8 770.301 1703.24L762.703 1711.33L766.018 1720.05C769.628 1729.55 780.205 1734.09 787.686 1729.35L792.405 1726.36L787.204 1725.78C784.343 1725.46 779.661 1725.04 776.8 1724.85C772.098 1724.54 771.245 1721.96 772.812 1712.81C773.537 1708.59 790.671 1708.98 790.671 1713.22C790.671 1715.11 787.547 1715.84 783.732 1714.84C779.914 1713.84 777.663 1714.44 778.735 1716.17C784.218 1725.05 802.83 1712.53 800.035 1701.84C799.168 1698.52 799.802 1693.68 801.446 1691.09L804.435 1686.37L804.491 1692.85C804.519 1696.41 809.224 1704.66 814.946 1711.18L825.35 1723.03V1714.61C825.35 1704.94 834.38 1699.98 841.396 1705.81C846.851 1710.34 847.624 1706.2 842.762 1698.51C840.567 1695.03 834.238 1693.41 823.741 1693.64L808.011 1693.97V1686.3C808.011 1676.94 821.209 1663.26 840.841 1652.29L855.534 1644.07L859.644 1649.61C861.905 1652.66 862.851 1653.24 861.749 1650.91C860.642 1648.58 862.324 1642.73 865.484 1637.91C868.646 1633.09 870.661 1629.31 869.964 1629.51C869.267 1629.72 863.566 1632.52 857.292 1635.74ZM870.557 1644.59C868.254 1647.37 867.349 1651.23 868.546 1653.17C871.66 1658.21 891.149 1666.69 903.377 1668.32L913.78 1669.72L902.371 1670.24C896.098 1670.53 884.845 1667.64 877.368 1663.82C860.011 1654.97 859.349 1655.06 860.667 1666.08C861.27 1671.14 865.664 1678.14 870.432 1681.64L879.102 1688L894.392 1682.68C902.801 1679.75 912.712 1675.73 916.416 1673.75L923.154 1670.14L913.482 1660.05C908.166 1654.49 901.955 1649.95 899.683 1649.95C897.415 1649.95 893.615 1647.61 891.239 1644.75C885.757 1638.14 875.977 1638.07 870.557 1644.59ZM737.499 1655.73C729.578 1663.65 739.039 1695.99 750.85 1701.37L759.232 1705.19L768.977 1696.99C774.334 1692.48 782.581 1688.06 787.297 1687.18L795.873 1685.58L788.313 1685.1C783.33 1684.79 780.372 1682 779.644 1676.92C777.906 1664.84 744.955 1648.27 737.499 1655.73ZM742.121 1666.26C742.121 1671.39 749.151 1676.64 764.77 1683.17L778.218 1688.79L773.617 1683.24C771.085 1680.19 766.577 1677.7 763.594 1677.7C760.612 1677.7 754.561 1674.3 750.146 1670.16C745.735 1666.01 742.121 1664.26 742.121 1666.26ZM783.736 1677.7C783.736 1679.6 786.077 1681.16 788.938 1681.16C791.798 1681.16 794.139 1679.6 794.139 1677.7C794.139 1675.79 791.798 1674.23 788.938 1674.23C786.077 1674.23 783.736 1675.79 783.736 1677.7ZM753.319 1713.03C754.075 1715.3 756.548 1717.77 758.812 1718.52C761.347 1719.37 762.121 1717.78 760.827 1714.41C758.406 1708.1 751.238 1706.79 753.319 1713.03ZM796.487 1732.75C797.482 1736.56 801.203 1742.3 804.751 1745.52L811.205 1751.36L826.949 1749C835.604 1747.7 842.689 1745.47 842.689 1744.05C842.689 1740.78 820.162 1731.06 805.677 1728.08L794.677 1725.82L796.487 1732.75Z" fill="black"/>
</svg>
