<svg width="389" height="132" viewBox="0 0 389 132" fill="none" xmlns="http://www.w3.org/2000/svg">
<path d="M204.907 5.27258C203.858 3.21658 203.037 0.954571 203.082 0.245571C203.126 -0.464429 203.803 0.418577 204.584 2.20558C205.366 3.99258 206.512 5.45558 207.131 5.45558C207.888 5.45558 208.046 6.84558 207.616 9.70558L206.976 13.9556L211.752 8.95558C214.379 6.20558 217.335 2.83058 218.322 1.45558C219.486 -0.167423 219.393 0.225574 218.058 2.57357C215.352 7.33057 215.462 8.03858 218.587 5.99058C220.009 5.05858 221.429 4.55158 221.741 4.86358C222.054 5.17558 220.327 6.30857 217.905 7.38157C212.275 9.87457 207.431 14.6196 205.957 19.0856C205.321 21.0126 205.02 22.8086 205.288 23.0766C205.555 23.3446 207.288 22.6406 209.137 21.5136C210.987 20.3856 212.95 19.4816 213.5 19.5036C214.05 19.5256 212.925 20.3816 211 21.4046C202.703 25.8146 200.948 30.6996 200.386 50.9556L199.97 65.9556L202.523 57.5496C203.927 52.9256 205.495 48.4256 206.007 47.5496L206.939 45.9556L206.97 47.7056C207.011 50.1046 207.882 49.9116 211.445 46.7156C213.125 45.2076 212.475 46.2086 210 48.9386C207.525 51.6686 205.187 54.1506 204.805 54.4536C204.422 54.7576 203.611 57.2446 203.002 59.9806C202.392 62.7166 201.288 66.7556 200.547 68.9556C199.807 71.1556 198.618 78.9216 197.907 86.2126L196.614 99.4696L197.807 100.663L199 101.856V99.7606C199 94.9146 203.367 84.1816 208.984 75.2236L215 65.6306L215.1 59.2926L215.201 52.9556L216.124 56.8966C216.632 59.0636 217.258 61.0466 217.514 61.3026C217.77 61.5586 219.491 58.5066 221.337 54.5196L224.695 47.2716L223.389 41.6546C221.798 34.8116 222.431 33.3086 224.104 39.9556L225.299 44.6996L226.614 42.3276C227.388 40.9316 228.016 36.0446 228.141 30.4556L228.353 20.9556L228.927 27.9556L229.5 34.9556L230.341 32.6306C230.804 31.3516 231.383 30.5056 231.628 30.7506C231.873 30.9956 231.201 33.3916 230.135 36.0756C229.069 38.7596 227.264 43.3076 226.123 46.1816L224.048 51.4076L227.83 47.6816C229.91 45.6326 233.837 42.4536 236.556 40.6166L241.5 37.2776L238.611 39.9376L235.723 42.5986L239.611 42.0526L243.5 41.5076L239.5 42.9046C237.3 43.6736 234.758 44.3366 233.85 44.3786C231.884 44.4706 222.597 54.3886 220.323 58.8266C219.44 60.5476 217.432 63.8366 215.859 66.1356C212.101 71.6306 212.24 72.5686 216.25 68.7666C219.463 65.7206 228.853 60.9746 229.798 61.9196C230.066 62.1886 229.467 62.7226 228.466 63.1066L226.646 63.8056L228.573 64.6446L230.5 65.4836L227.523 65.0646C223.359 64.4796 218.376 67.3076 212.354 73.6756C206.141 80.2446 203.514 85.1876 200.867 95.2866C198.551 104.125 198.094 121.18 200.017 127.008C200.82 129.44 200.884 130.972 200.211 131.645C198.65 133.206 197.087 124.09 196.359 109.166L195.714 95.9556L192.915 87.9556C187.827 73.4156 185.46 69.0546 179.981 64.1286L174.784 59.4556L170.642 59.3396C168.364 59.2756 167.4 58.9986 168.5 58.7236C169.6 58.4486 170.763 57.8076 171.084 57.2986C171.406 56.7896 174.433 58.4086 177.813 60.8966L183.957 65.4196L181.848 60.1876C180.689 57.3096 179.166 53.1106 178.463 50.8566C176.814 45.5636 172.43 36.8266 169.386 32.7686L166.995 29.5826L163.747 29.8876C161.961 30.0556 161.513 29.9976 162.75 29.7576C165.457 29.2346 165.565 28.6056 163.25 26.8476C162.288 26.1166 162.001 25.5046 162.613 25.4876C163.792 25.4536 171.71 33.7226 173.646 37.0096C174.369 38.2376 174.257 36.5956 173.343 32.5636C172.546 29.0486 172.076 24.9986 172.297 23.5636L172.7 20.9556L172.85 24.7646C173.052 29.9026 174.318 28.7666 177.066 20.9806C178.328 17.4066 179.54 14.6626 179.759 14.8816C179.979 15.1006 178.816 19.1746 177.175 23.9346L174.192 32.5896L176.207 39.7726C178.848 49.1826 179.93 51.0506 179.97 46.2646C179.986 44.2346 180.337 42.3636 180.75 42.1066C181.163 41.8506 181.346 44.5986 181.157 48.2146L180.815 54.7886L183.657 61.8716L186.5 68.9556L187.005 62.9556L187.51 56.9556L188.183 65.9556L188.857 74.9556L191.928 82.3096C193.618 86.3536 195 90.3666 195 91.2256C195 92.0856 195.262 92.5266 195.583 92.2066C195.903 91.8856 196.816 86.3446 197.612 79.8926L199.058 68.1616L197.894 64.5586C195.518 57.2056 192.885 53.3386 188.258 50.4036C183.659 47.4876 183.092 46.3946 187.316 48.5916L189.5 49.7266L187.079 47.0956C185.748 45.6476 184.922 44.2006 185.243 43.8796C186.153 42.9696 194.029 53.3916 196.637 58.9556L198.98 63.9556L198.99 53.1486C198.996 47.2046 199.504 39.2906 200.119 35.5626L201.239 28.7836L199.187 24.1466C197.948 21.3456 195.822 18.6756 193.818 17.4046L190.5 15.3006L192.836 15.9726L195.172 16.6446L194.019 14.3006L192.866 11.9556L194.878 14.4556C195.984 15.8306 197.891 19.0926 199.116 21.7056C200.34 24.3186 201.662 26.4556 202.052 26.4556C202.774 26.4556 204.626 20.1926 206.036 12.9826L206.813 9.00958L204.907 5.27258Z" fill="black"/>
<path d="M6.25 18.3856C4.738 18.3466 2.6 17.9286 1.5 17.4556C0.286 16.9346 6.578 16.5966 17.5 16.5966C28.422 16.5966 34.714 16.9346 33.5 17.4556C32.4 17.9286 30.295 18.3466 28.823 18.3856C27.179 18.4286 25.345 19.4726 24.073 21.0906L22 23.7256V41.0906V58.4556H50H78V40.4556V22.4556L76 20.4556C74.9 19.3556 72.762 18.4236 71.25 18.3856C69.738 18.3466 67.6 17.9286 66.5 17.4556C65.286 16.9346 71.578 16.5966 82.5 16.5966C93.422 16.5966 99.714 16.9346 98.5 17.4556C97.4 17.9286 95.332 18.3466 93.905 18.3856C92.478 18.4236 90.453 19.4026 89.405 20.5606L87.5 22.6656V62.1486V101.633L89.861 103.544C91.281 104.694 93.771 105.456 96.111 105.456C98.25 105.456 100 105.906 100 106.456C100 107.085 93.48 107.456 82.441 107.456C70.99 107.456 65.097 107.108 65.5 106.456C65.84 105.906 67.791 105.456 69.837 105.456C71.882 105.456 74.555 104.755 75.777 103.899L78 102.343V81.8986V61.4556H50H22V80.5216C22 103.973 22.505 105.411 30.75 105.441C33.087 105.449 35 105.906 35 106.456C35 107.085 28.5 107.456 17.5 107.456C6.5 107.456 0 107.085 0 106.456C0 105.906 2.025 105.456 4.5 105.456H9L11 103.456L13 101.456V61.9556V22.4556L11 20.4556C9.9 19.3556 7.762 18.4236 6.25 18.3856Z" fill="black"/>
<path d="M303.039 18.4666C300.818 17.8676 299 17.1706 299 16.9166C299 16.6636 306.087 16.4626 314.75 16.4706C325.288 16.4816 330.004 16.8066 329 17.4556C328.175 17.9886 326.768 18.4316 325.872 18.4406C324.977 18.4486 323.668 19.1506 322.963 20.0006L321.68 21.5456L334.546 40.5226L347.411 59.4996L357.599 43.9236C363.203 35.3566 368.027 27.1336 368.321 25.6516C368.974 22.3466 366.657 18.4556 364.036 18.4556C362.981 18.4556 361.84 18.0056 361.5 17.4556C361.099 16.8066 365.843 16.4556 375 16.4556C388.39 16.4556 392.281 17.4296 384.625 18.8666C378.673 19.9826 372.32 26.8786 360.25 45.3206L348.886 62.6856L349.193 82.6536L349.5 102.621L351.441 104.038C352.509 104.818 355.07 105.456 357.132 105.456C359.195 105.456 361.16 105.906 361.5 106.456C361.903 107.108 356.01 107.456 344.559 107.456C333.52 107.456 327 107.085 327 106.456C327 105.906 328.913 105.449 331.25 105.441C339.392 105.411 340 103.799 340 82.2496V64.9116L326.416 44.9336C318.945 33.9456 311.538 23.7406 309.956 22.2546C308.373 20.7696 305.261 19.0646 303.039 18.4666Z" fill="black"/>
</svg>
