<svg width="82" height="132" viewBox="0 0 82 132" fill="none" xmlns="http://www.w3.org/2000/svg">
<path d="M42.8563 5.27258C41.8073 3.21658 40.9863 0.954571 41.0313 0.245571C41.0753 -0.464429 41.7523 0.418577 42.5333 2.20558C43.3153 3.99258 44.4613 5.45558 45.0803 5.45558C45.8373 5.45558 45.9953 6.84558 45.5653 9.70558L44.9253 13.9556L49.7013 8.95558C52.3283 6.20558 55.2843 2.83058 56.2713 1.45558C57.4353 -0.167423 57.3423 0.225574 56.0073 2.57357C53.3013 7.33057 53.4113 8.03858 56.5363 5.99058C57.9583 5.05858 59.3783 4.55158 59.6903 4.86358C60.0033 5.17558 58.2763 6.30857 55.8543 7.38157C50.2243 9.87457 45.3803 14.6196 43.9063 19.0856C43.2703 21.0126 42.9693 22.8086 43.2373 23.0766C43.5043 23.3446 45.2373 22.6406 47.0863 21.5136C48.9363 20.3856 50.8993 19.4816 51.4493 19.5036C51.9993 19.5256 50.8743 20.3816 48.9493 21.4046C40.6523 25.8146 38.8973 30.6996 38.3353 50.9556L37.9193 65.9556L40.4723 57.5496C41.8763 52.9256 43.4443 48.4256 43.9563 47.5496L44.8883 45.9556L44.9193 47.7056C44.9603 50.1046 45.8313 49.9116 49.3943 46.7156C51.0743 45.2076 50.4243 46.2086 47.9493 48.9386C45.4743 51.6686 43.1363 54.1506 42.7543 54.4536C42.3713 54.7576 41.5603 57.2446 40.9513 59.9806C40.3413 62.7166 39.2373 66.7556 38.4963 68.9556C37.7563 71.1556 36.5673 78.9216 35.8563 86.2126L34.5633 99.4696L35.7563 100.663L36.9493 101.856V99.7606C36.9493 94.9146 41.3163 84.1816 46.9333 75.2236L52.9493 65.6306L53.0493 59.2926L53.1503 52.9556L54.0733 56.8966C54.5813 59.0636 55.2073 61.0466 55.4633 61.3026C55.7193 61.5586 57.4403 58.5066 59.2863 54.5196L62.6443 47.2716L61.3383 41.6546C59.7473 34.8116 60.3803 33.3086 62.0533 39.9556L63.2483 44.6996L64.5633 42.3276C65.3373 40.9316 65.9653 36.0446 66.0903 30.4556L66.3023 20.9556L66.8763 27.9556L67.4493 34.9556L68.2903 32.6306C68.7533 31.3516 69.3323 30.5056 69.5773 30.7506C69.8223 30.9956 69.1503 33.3916 68.0843 36.0756C67.0183 38.7596 65.2133 43.3076 64.0723 46.1816L61.9973 51.4076L65.7793 47.6816C67.8593 45.6326 71.7863 42.4536 74.5053 40.6166L79.4493 37.2776L76.5603 39.9376L73.6723 42.5986L77.5603 42.0526L81.4493 41.5076L77.4493 42.9046C75.2493 43.6736 72.7073 44.3366 71.7993 44.3786C69.8333 44.4706 60.5463 54.3886 58.2723 58.8266C57.3893 60.5476 55.3813 63.8366 53.8083 66.1356C50.0503 71.6306 50.1893 72.5686 54.1993 68.7666C57.4123 65.7206 66.8023 60.9746 67.7473 61.9196C68.0153 62.1886 67.4163 62.7226 66.4153 63.1066L64.5953 63.8056L66.5223 64.6446L68.4493 65.4836L65.4723 65.0646C61.3083 64.4796 56.3253 67.3076 50.3033 73.6756C44.0903 80.2446 41.4633 85.1876 38.8163 95.2866C36.5003 104.125 36.0433 121.18 37.9663 127.008C38.7693 129.44 38.8333 130.972 38.1603 131.645C36.5993 133.206 35.0363 124.09 34.3083 109.166L33.6633 95.9556L30.8643 87.9556C25.7763 73.4156 23.4093 69.0546 17.9303 64.1286L12.7333 59.4556L8.59132 59.3396C6.31332 59.2756 5.3493 58.9986 6.4493 58.7236C7.5493 58.4486 8.71228 57.8076 9.03328 57.2986C9.35528 56.7896 12.3823 58.4086 15.7623 60.8966L21.9063 65.4196L19.7973 60.1876C18.6383 57.3096 17.1153 53.1106 16.4123 50.8566C14.7633 45.5636 10.3793 36.8266 7.33528 32.7686L4.94429 29.5826L1.69631 29.8876C-0.0896947 30.0556 -0.537704 29.9976 0.699296 29.7576C3.4063 29.2346 3.5143 28.6056 1.1993 26.8476C0.237296 26.1166 -0.0497279 25.5046 0.562272 25.4876C1.74127 25.4536 9.65929 33.7226 11.5953 37.0096C12.3183 38.2376 12.2063 36.5956 11.2923 32.5636C10.4953 29.0486 10.0253 24.9986 10.2463 23.5636L10.6493 20.9556L10.7993 24.7646C11.0013 29.9026 12.2673 28.7666 15.0153 20.9806C16.2773 17.4066 17.4893 14.6626 17.7083 14.8816C17.9283 15.1006 16.7653 19.1746 15.1243 23.9346L12.1413 32.5896L14.1563 39.7726C16.7973 49.1826 17.8793 51.0506 17.9193 46.2646C17.9353 44.2346 18.2863 42.3636 18.6993 42.1066C19.1123 41.8506 19.2953 44.5986 19.1063 48.2146L18.7643 54.7886L21.6063 61.8716L24.4493 68.9556L24.9543 62.9556L25.4593 56.9556L26.1323 65.9556L26.8063 74.9556L29.8773 82.3096C31.5673 86.3536 32.9493 90.3666 32.9493 91.2256C32.9493 92.0856 33.2113 92.5266 33.5323 92.2066C33.8523 91.8856 34.7653 86.3446 35.5613 79.8926L37.0073 68.1616L35.8433 64.5586C33.4673 57.2056 30.8343 53.3386 26.2073 50.4036C21.6083 47.4876 21.0413 46.3946 25.2653 48.5916L27.4493 49.7266L25.0283 47.0956C23.6973 45.6476 22.8713 44.2006 23.1923 43.8796C24.1023 42.9696 31.9783 53.3916 34.5863 58.9556L36.9293 63.9556L36.9393 53.1486C36.9453 47.2046 37.4533 39.2906 38.0683 35.5626L39.1883 28.7836L37.1363 24.1466C35.8973 21.3456 33.7713 18.6756 31.7673 17.4046L28.4493 15.3006L30.7853 15.9726L33.1213 16.6446L31.9683 14.3006L30.8153 11.9556L32.8273 14.4556C33.9333 15.8306 35.8403 19.0926 37.0653 21.7056C38.2893 24.3186 39.6113 26.4556 40.0013 26.4556C40.7233 26.4556 42.5753 20.1926 43.9853 12.9826L44.7623 9.00958L42.8563 5.27258Z" fill="black"/>
</svg>
